#
# Created for Leeds COMP 5821M Autumn 2020
#
# Sphere
# Slices: 10
# Segments: 10
#
v  0.0000  0.0000  1.0000
v  0.0000  0.0000 -1.0000
v  0.0000  0.3090  0.9511
v  0.1816  0.2500  0.9511
v  0.2939  0.0955  0.9511
v  0.2939 -0.0955  0.9511
v  0.1816 -0.2500  0.9511
v -0.0000 -0.3090  0.9511
v -0.1816 -0.2500  0.9511
v -0.2939 -0.0955  0.9511
v -0.2939  0.0955  0.9511
v -0.1816  0.2500  0.9511
v  0.0000  0.5878  0.8090
v  0.3455  0.4755  0.8090
v  0.5590  0.1816  0.8090
v  0.5590 -0.1816  0.8090
v  0.3455 -0.4755  0.8090
v -0.0000 -0.5878  0.8090
v -0.3455 -0.4755  0.8090
v -0.5590 -0.1816  0.8090
v -0.5590  0.1816  0.8090
v -0.3455  0.4755  0.8090
v  0.0000  0.8090  0.5878
v  0.4755  0.6545  0.5878
v  0.7694  0.2500  0.5878
v  0.7694 -0.2500  0.5878
v  0.4755 -0.6545  0.5878
v -0.0000 -0.8090  0.5878
v -0.4755 -0.6545  0.5878
v -0.7694 -0.2500  0.5878
v -0.7694  0.2500  0.5878
v -0.4755  0.6545  0.5878
v  0.0000  0.9511  0.3090
v  0.5590  0.7694  0.3090
v  0.9045  0.2939  0.3090
v  0.9045 -0.2939  0.3090
v  0.5590 -0.7694  0.3090
v -0.0000 -0.9511  0.3090
v -0.5590 -0.7694  0.3090
v -0.9045 -0.2939  0.3090
v -0.9045  0.2939  0.3090
v -0.5590  0.7694  0.3090
v  0.0000  1.0000  0.0000
v  0.5878  0.8090  0.0000
v  0.9511  0.3090  0.0000
v  0.9511 -0.3090  0.0000
v  0.5878 -0.8090  0.0000
v -0.0000 -1.0000  0.0000
v -0.5878 -0.8090  0.0000
v -0.9511 -0.3090  0.0000
v -0.9511  0.3090  0.0000
v -0.5878  0.8090  0.0000
v  0.0000  0.9511 -0.3090
v  0.5590  0.7694 -0.3090
v  0.9045  0.2939 -0.3090
v  0.9045 -0.2939 -0.3090
v  0.5590 -0.7694 -0.3090
v -0.0000 -0.9511 -0.3090
v -0.5590 -0.7694 -0.3090
v -0.9045 -0.2939 -0.3090
v -0.9045  0.2939 -0.3090
v -0.5590  0.7694 -0.3090
v  0.0000  0.8090 -0.5878
v  0.4755  0.6545 -0.5878
v  0.7694  0.2500 -0.5878
v  0.7694 -0.2500 -0.5878
v  0.4755 -0.6545 -0.5878
v -0.0000 -0.8090 -0.5878
v -0.4755 -0.6545 -0.5878
v -0.7694 -0.2500 -0.5878
v -0.7694  0.2500 -0.5878
v -0.4755  0.6545 -0.5878
v  0.0000  0.5878 -0.8090
v  0.3455  0.4755 -0.8090
v  0.5590  0.1816 -0.8090
v  0.5590 -0.1816 -0.8090
v  0.3455 -0.4755 -0.8090
v -0.0000 -0.5878 -0.8090
v -0.3455 -0.4755 -0.8090
v -0.5590 -0.1816 -0.8090
v -0.5590  0.1816 -0.8090
v -0.3455  0.4755 -0.8090
v  0.0000  0.3090 -0.9511
v  0.1816  0.2500 -0.9511
v  0.2939  0.0955 -0.9511
v  0.2939 -0.0955 -0.9511
v  0.1816 -0.2500 -0.9511
v -0.0000 -0.3090 -0.9511
v -0.1816 -0.2500 -0.9511
v -0.2939 -0.0955 -0.9511
v -0.2939  0.0955 -0.9511
v -0.1816  0.2500 -0.9511
vc  1.0000  0.0000  0.0000
vc  1.0000 -0.0000  0.0000
vc  1.0000  0.0000  0.6000
vc  1.0000  0.0000  0.6000
vc  1.0000  0.0000  0.6000
vc  1.0000  0.0000  0.6000
vc  1.0000  0.0000  0.6000
vc  1.0000  0.0000  0.6000
vc  1.0000  0.0000  0.6000
vc  1.0000  0.0000  0.6000
vc  1.0000  0.0000  0.6000
vc  1.0000  0.0000  0.6000
vc  0.8000  0.0000  1.0000
vc  0.8000  0.0000  1.0000
vc  0.8000  0.0000  1.0000
vc  0.8000  0.0000  1.0000
vc  0.8000  0.0000  1.0000
vc  0.8000  0.0000  1.0000
vc  0.8000  0.0000  1.0000
vc  0.8000  0.0000  1.0000
vc  0.8000  0.0000  1.0000
vc  0.8000  0.0000  1.0000
vc  0.2000  0.0000  1.0000
vc  0.2000  0.0000  1.0000
vc  0.2000  0.0000  1.0000
vc  0.2000  0.0000  1.0000
vc  0.2000  0.0000  1.0000
vc  0.2000  0.0000  1.0000
vc  0.2000  0.0000  1.0000
vc  0.2000  0.0000  1.0000
vc  0.2000  0.0000  1.0000
vc  0.2000  0.0000  1.0000
vc  0.0000  0.4000  1.0000
vc  0.0000  0.4000  1.0000
vc  0.0000  0.4000  1.0000
vc  0.0000  0.4000  1.0000
vc  0.0000  0.4000  1.0000
vc  0.0000  0.4000  1.0000
vc  0.0000  0.4000  1.0000
vc  0.0000  0.4000  1.0000
vc  0.0000  0.4000  1.0000
vc  0.0000  0.4000  1.0000
vc  0.0000  1.0000  1.0000
vc  0.0000  1.0000  1.0000
vc  0.0000  1.0000  1.0000
vc  0.0000  1.0000  1.0000
vc  0.0000  1.0000  1.0000
vc  0.0000  1.0000  1.0000
vc  0.0000  1.0000  1.0000
vc  0.0000  1.0000  1.0000
vc  0.0000  1.0000  1.0000
vc  0.0000  1.0000  1.0000
vc  0.0000  1.0000  0.4000
vc  0.0000  1.0000  0.4000
vc  0.0000  1.0000  0.4000
vc  0.0000  1.0000  0.4000
vc  0.0000  1.0000  0.4000
vc  0.0000  1.0000  0.4000
vc  0.0000  1.0000  0.4000
vc  0.0000  1.0000  0.4000
vc  0.0000  1.0000  0.4000
vc  0.0000  1.0000  0.4000
vc  0.2000  1.0000  0.0000
vc  0.2000  1.0000  0.0000
vc  0.2000  1.0000  0.0000
vc  0.2000  1.0000  0.0000
vc  0.2000  1.0000  0.0000
vc  0.2000  1.0000  0.0000
vc  0.2000  1.0000  0.0000
vc  0.2000  1.0000  0.0000
vc  0.2000  1.0000  0.0000
vc  0.2000  1.0000  0.0000
vc  0.8000  1.0000  0.0000
vc  0.8000  1.0000  0.0000
vc  0.8000  1.0000  0.0000
vc  0.8000  1.0000  0.0000
vc  0.8000  1.0000  0.0000
vc  0.8000  1.0000  0.0000
vc  0.8000  1.0000  0.0000
vc  0.8000  1.0000  0.0000
vc  0.8000  1.0000  0.0000
vc  0.8000  1.0000  0.0000
vc  1.0000  0.6000  0.0000
vc  1.0000  0.6000  0.0000
vc  1.0000  0.6000  0.0000
vc  1.0000  0.6000  0.0000
vc  1.0000  0.6000  0.0000
vc  1.0000  0.6000  0.0000
vc  1.0000  0.6000  0.0000
vc  1.0000  0.6000  0.0000
vc  1.0000  0.6000  0.0000
vc  1.0000  0.6000  0.0000
vn  0.0000  0.0000  1.0000
vn  0.0000  0.0000 -1.0000
vn  0.0000  0.3090  0.9511
vn  0.1816  0.2500  0.9511
vn  0.2939  0.0955  0.9511
vn  0.2939 -0.0955  0.9511
vn  0.1816 -0.2500  0.9511
vn -0.0000 -0.3090  0.9511
vn -0.1816 -0.2500  0.9511
vn -0.2939 -0.0955  0.9511
vn -0.2939  0.0955  0.9511
vn -0.1816  0.2500  0.9511
vn  0.0000  0.5878  0.8090
vn  0.3455  0.4755  0.8090
vn  0.5590  0.1816  0.8090
vn  0.5590 -0.1816  0.8090
vn  0.3455 -0.4755  0.8090
vn -0.0000 -0.5878  0.8090
vn -0.3455 -0.4755  0.8090
vn -0.5590 -0.1816  0.8090
vn -0.5590  0.1816  0.8090
vn -0.3455  0.4755  0.8090
vn  0.0000  0.8090  0.5878
vn  0.4755  0.6545  0.5878
vn  0.7694  0.2500  0.5878
vn  0.7694 -0.2500  0.5878
vn  0.4755 -0.6545  0.5878
vn -0.0000 -0.8090  0.5878
vn -0.4755 -0.6545  0.5878
vn -0.7694 -0.2500  0.5878
vn -0.7694  0.2500  0.5878
vn -0.4755  0.6545  0.5878
vn  0.0000  0.9511  0.3090
vn  0.5590  0.7694  0.3090
vn  0.9045  0.2939  0.3090
vn  0.9045 -0.2939  0.3090
vn  0.5590 -0.7694  0.3090
vn -0.0000 -0.9511  0.3090
vn -0.5590 -0.7694  0.3090
vn -0.9045 -0.2939  0.3090
vn -0.9045  0.2939  0.3090
vn -0.5590  0.7694  0.3090
vn  0.0000  1.0000  0.0000
vn  0.5878  0.8090  0.0000
vn  0.9511  0.3090  0.0000
vn  0.9511 -0.3090  0.0000
vn  0.5878 -0.8090  0.0000
vn -0.0000 -1.0000  0.0000
vn -0.5878 -0.8090  0.0000
vn -0.9511 -0.3090  0.0000
vn -0.9511  0.3090  0.0000
vn -0.5878  0.8090  0.0000
vn  0.0000  0.9511 -0.3090
vn  0.5590  0.7694 -0.3090
vn  0.9045  0.2939 -0.3090
vn  0.9045 -0.2939 -0.3090
vn  0.5590 -0.7694 -0.3090
vn -0.0000 -0.9511 -0.3090
vn -0.5590 -0.7694 -0.3090
vn -0.9045 -0.2939 -0.3090
vn -0.9045  0.2939 -0.3090
vn -0.5590  0.7694 -0.3090
vn  0.0000  0.8090 -0.5878
vn  0.4755  0.6545 -0.5878
vn  0.7694  0.2500 -0.5878
vn  0.7694 -0.2500 -0.5878
vn  0.4755 -0.6545 -0.5878
vn -0.0000 -0.8090 -0.5878
vn -0.4755 -0.6545 -0.5878
vn -0.7694 -0.2500 -0.5878
vn -0.7694  0.2500 -0.5878
vn -0.4755  0.6545 -0.5878
vn  0.0000  0.5878 -0.8090
vn  0.3455  0.4755 -0.8090
vn  0.5590  0.1816 -0.8090
vn  0.5590 -0.1816 -0.8090
vn  0.3455 -0.4755 -0.8090
vn -0.0000 -0.5878 -0.8090
vn -0.3455 -0.4755 -0.8090
vn -0.5590 -0.1816 -0.8090
vn -0.5590  0.1816 -0.8090
vn -0.3455  0.4755 -0.8090
vn  0.0000  0.3090 -0.9511
vn  0.1816  0.2500 -0.9511
vn  0.2939  0.0955 -0.9511
vn  0.2939 -0.0955 -0.9511
vn  0.1816 -0.2500 -0.9511
vn -0.0000 -0.3090 -0.9511
vn -0.1816 -0.2500 -0.9511
vn -0.2939 -0.0955 -0.9511
vn -0.2939  0.0955 -0.9511
vn -0.1816  0.2500 -0.9511
vt  0.0500  1.0000  0.0000
vt  0.1500  1.0000  0.0000
vt  0.2500  1.0000  0.0000
vt  0.3500  1.0000  0.0000
vt  0.4500  1.0000  0.0000
vt  0.5500  1.0000  0.0000
vt  0.6500  1.0000  0.0000
vt  0.7500  1.0000  0.0000
vt  0.8500  1.0000  0.0000
vt  0.9500  1.0000  0.0000
vt  0.0500  0.0000  0.0000
vt  0.1500  0.0000  0.0000
vt  0.2500  0.0000  0.0000
vt  0.3500  0.0000  0.0000
vt  0.4500  0.0000  0.0000
vt  0.5500  0.0000  0.0000
vt  0.6500  0.0000  0.0000
vt  0.7500  0.0000  0.0000
vt  0.8500  0.0000  0.0000
vt  0.9500  0.0000  0.0000
vt  0.0000  0.9000  0.0000
vt  0.1000  0.9000  0.0000
vt  0.2000  0.9000  0.0000
vt  0.3000  0.9000  0.0000
vt  0.4000  0.9000  0.0000
vt  0.5000  0.9000  0.0000
vt  0.6000  0.9000  0.0000
vt  0.7000  0.9000  0.0000
vt  0.8000  0.9000  0.0000
vt  0.9000  0.9000  0.0000
vt  1.0000  0.9000  0.0000
vt  0.0000  0.8000  0.0000
vt  0.1000  0.8000  0.0000
vt  0.2000  0.8000  0.0000
vt  0.3000  0.8000  0.0000
vt  0.4000  0.8000  0.0000
vt  0.5000  0.8000  0.0000
vt  0.6000  0.8000  0.0000
vt  0.7000  0.8000  0.0000
vt  0.8000  0.8000  0.0000
vt  0.9000  0.8000  0.0000
vt  1.0000  0.8000  0.0000
vt  0.0000  0.7000  0.0000
vt  0.1000  0.7000  0.0000
vt  0.2000  0.7000  0.0000
vt  0.3000  0.7000  0.0000
vt  0.4000  0.7000  0.0000
vt  0.5000  0.7000  0.0000
vt  0.6000  0.7000  0.0000
vt  0.7000  0.7000  0.0000
vt  0.8000  0.7000  0.0000
vt  0.9000  0.7000  0.0000
vt  1.0000  0.7000  0.0000
vt  0.0000  0.6000  0.0000
vt  0.1000  0.6000  0.0000
vt  0.2000  0.6000  0.0000
vt  0.3000  0.6000  0.0000
vt  0.4000  0.6000  0.0000
vt  0.5000  0.6000  0.0000
vt  0.6000  0.6000  0.0000
vt  0.7000  0.6000  0.0000
vt  0.8000  0.6000  0.0000
vt  0.9000  0.6000  0.0000
vt  1.0000  0.6000  0.0000
vt  0.0000  0.5000  0.0000
vt  0.1000  0.5000  0.0000
vt  0.2000  0.5000  0.0000
vt  0.3000  0.5000  0.0000
vt  0.4000  0.5000  0.0000
vt  0.5000  0.5000  0.0000
vt  0.6000  0.5000  0.0000
vt  0.7000  0.5000  0.0000
vt  0.8000  0.5000  0.0000
vt  0.9000  0.5000  0.0000
vt  1.0000  0.5000  0.0000
vt  0.0000  0.4000  0.0000
vt  0.1000  0.4000  0.0000
vt  0.2000  0.4000  0.0000
vt  0.3000  0.4000  0.0000
vt  0.4000  0.4000  0.0000
vt  0.5000  0.4000  0.0000
vt  0.6000  0.4000  0.0000
vt  0.7000  0.4000  0.0000
vt  0.8000  0.4000  0.0000
vt  0.9000  0.4000  0.0000
vt  1.0000  0.4000  0.0000
vt  0.0000  0.3000  0.0000
vt  0.1000  0.3000  0.0000
vt  0.2000  0.3000  0.0000
vt  0.3000  0.3000  0.0000
vt  0.4000  0.3000  0.0000
vt  0.5000  0.3000  0.0000
vt  0.6000  0.3000  0.0000
vt  0.7000  0.3000  0.0000
vt  0.8000  0.3000  0.0000
vt  0.9000  0.3000  0.0000
vt  1.0000  0.3000  0.0000
vt  0.0000  0.2000  0.0000
vt  0.1000  0.2000  0.0000
vt  0.2000  0.2000  0.0000
vt  0.3000  0.2000  0.0000
vt  0.4000  0.2000  0.0000
vt  0.5000  0.2000  0.0000
vt  0.6000  0.2000  0.0000
vt  0.7000  0.2000  0.0000
vt  0.8000  0.2000  0.0000
vt  0.9000  0.2000  0.0000
vt  1.0000  0.2000  0.0000
vt  0.0000  0.1000  0.0000
vt  0.1000  0.1000  0.0000
vt  0.2000  0.1000  0.0000
vt  0.3000  0.1000  0.0000
vt  0.4000  0.1000  0.0000
vt  0.5000  0.1000  0.0000
vt  0.6000  0.1000  0.0000
vt  0.7000  0.1000  0.0000
vt  0.8000  0.1000  0.0000
vt  0.9000  0.1000  0.0000
vt  1.0000  0.1000  0.0000
f 1/1/1/1 4/4/22/4 3/3/21/3
f 1/1/2/1 5/5/23/5 4/4/22/4
f 1/1/3/1 6/6/24/6 5/5/23/5
f 1/1/4/1 7/7/25/7 6/6/24/6
f 1/1/5/1 8/8/26/8 7/7/25/7
f 1/1/6/1 9/9/27/9 8/8/26/8
f 1/1/7/1 10/10/28/10 9/9/27/9
f 1/1/8/1 11/11/29/11 10/10/28/10
f 1/1/9/1 12/12/30/12 11/11/29/11
f 1/1/10/1 3/3/31/3 12/12/30/12
f 3/3/21/3 4/4/22/4 13/13/32/13
f 4/4/22/4 14/14/33/14 13/13/32/13
f 4/4/22/4 5/5/23/5 14/14/33/14
f 5/5/23/5 15/15/34/15 14/14/33/14
f 5/5/23/5 6/6/24/6 15/15/34/15
f 6/6/24/6 16/16/35/16 15/15/34/15
f 6/6/24/6 7/7/25/7 16/16/35/16
f 7/7/25/7 17/17/36/17 16/16/35/16
f 7/7/25/7 8/8/26/8 17/17/36/17
f 8/8/26/8 18/18/37/18 17/17/36/17
f 8/8/26/8 9/9/27/9 18/18/37/18
f 9/9/27/9 19/19/38/19 18/18/37/18
f 9/9/27/9 10/10/28/10 19/19/38/19
f 10/10/28/10 20/20/39/20 19/19/38/19
f 10/10/28/10 11/11/29/11 20/20/39/20
f 11/11/29/11 21/21/40/21 20/20/39/20
f 11/11/29/11 12/12/30/12 21/21/40/21
f 12/12/30/12 22/22/41/22 21/21/40/21
f 12/12/30/12 3/3/31/3 22/22/41/22
f 3/3/31/3 13/13/42/13 22/22/41/22
f 13/13/32/13 14/14/33/14 23/23/43/23
f 14/14/33/14 24/24/44/24 23/23/43/23
f 14/14/33/14 15/15/34/15 24/24/44/24
f 15/15/34/15 25/25/45/25 24/24/44/24
f 15/15/34/15 16/16/35/16 25/25/45/25
f 16/16/35/16 26/26/46/26 25/25/45/25
f 16/16/35/16 17/17/36/17 26/26/46/26
f 17/17/36/17 27/27/47/27 26/26/46/26
f 17/17/36/17 18/18/37/18 27/27/47/27
f 18/18/37/18 28/28/48/28 27/27/47/27
f 18/18/37/18 19/19/38/19 28/28/48/28
f 19/19/38/19 29/29/49/29 28/28/48/28
f 19/19/38/19 20/20/39/20 29/29/49/29
f 20/20/39/20 30/30/50/30 29/29/49/29
f 20/20/39/20 21/21/40/21 30/30/50/30
f 21/21/40/21 31/31/51/31 30/30/50/30
f 21/21/40/21 22/22/41/22 31/31/51/31
f 22/22/41/22 32/32/52/32 31/31/51/31
f 22/22/41/22 13/13/42/13 32/32/52/32
f 13/13/42/13 23/23/53/23 32/32/52/32
f 23/23/43/23 24/24/44/24 33/33/54/33
f 24/24/44/24 34/34/55/34 33/33/54/33
f 24/24/44/24 25/25/45/25 34/34/55/34
f 25/25/45/25 35/35/56/35 34/34/55/34
f 25/25/45/25 26/26/46/26 35/35/56/35
f 26/26/46/26 36/36/57/36 35/35/56/35
f 26/26/46/26 27/27/47/27 36/36/57/36
f 27/27/47/27 37/37/58/37 36/36/57/36
f 27/27/47/27 28/28/48/28 37/37/58/37
f 28/28/48/28 38/38/59/38 37/37/58/37
f 28/28/48/28 29/29/49/29 38/38/59/38
f 29/29/49/29 39/39/60/39 38/38/59/38
f 29/29/49/29 30/30/50/30 39/39/60/39
f 30/30/50/30 40/40/61/40 39/39/60/39
f 30/30/50/30 31/31/51/31 40/40/61/40
f 31/31/51/31 41/41/62/41 40/40/61/40
f 31/31/51/31 32/32/52/32 41/41/62/41
f 32/32/52/32 42/42/63/42 41/41/62/41
f 32/32/52/32 23/23/53/23 42/42/63/42
f 23/23/53/23 33/33/64/33 42/42/63/42
f 33/33/54/33 34/34/55/34 43/43/65/43
f 34/34/55/34 44/44/66/44 43/43/65/43
f 34/34/55/34 35/35/56/35 44/44/66/44
f 35/35/56/35 45/45/67/45 44/44/66/44
f 35/35/56/35 36/36/57/36 45/45/67/45
f 36/36/57/36 46/46/68/46 45/45/67/45
f 36/36/57/36 37/37/58/37 46/46/68/46
f 37/37/58/37 47/47/69/47 46/46/68/46
f 37/37/58/37 38/38/59/38 47/47/69/47
f 38/38/59/38 48/48/70/48 47/47/69/47
f 38/38/59/38 39/39/60/39 48/48/70/48
f 39/39/60/39 49/49/71/49 48/48/70/48
f 39/39/60/39 40/40/61/40 49/49/71/49
f 40/40/61/40 50/50/72/50 49/49/71/49
f 40/40/61/40 41/41/62/41 50/50/72/50
f 41/41/62/41 51/51/73/51 50/50/72/50
f 41/41/62/41 42/42/63/42 51/51/73/51
f 42/42/63/42 52/52/74/52 51/51/73/51
f 42/42/63/42 33/33/64/33 52/52/74/52
f 33/33/64/33 43/43/75/43 52/52/74/52
f 43/43/65/43 44/44/66/44 53/53/76/53
f 44/44/66/44 54/54/77/54 53/53/76/53
f 44/44/66/44 45/45/67/45 54/54/77/54
f 45/45/67/45 55/55/78/55 54/54/77/54
f 45/45/67/45 46/46/68/46 55/55/78/55
f 46/46/68/46 56/56/79/56 55/55/78/55
f 46/46/68/46 47/47/69/47 56/56/79/56
f 47/47/69/47 57/57/80/57 56/56/79/56
f 47/47/69/47 48/48/70/48 57/57/80/57
f 48/48/70/48 58/58/81/58 57/57/80/57
f 48/48/70/48 49/49/71/49 58/58/81/58
f 49/49/71/49 59/59/82/59 58/58/81/58
f 49/49/71/49 50/50/72/50 59/59/82/59
f 50/50/72/50 60/60/83/60 59/59/82/59
f 50/50/72/50 51/51/73/51 60/60/83/60
f 51/51/73/51 61/61/84/61 60/60/83/60
f 51/51/73/51 52/52/74/52 61/61/84/61
f 52/52/74/52 62/62/85/62 61/61/84/61
f 52/52/74/52 43/43/75/43 62/62/85/62
f 43/43/75/43 53/53/86/53 62/62/85/62
f 53/53/76/53 54/54/77/54 63/63/87/63
f 54/54/77/54 64/64/88/64 63/63/87/63
f 54/54/77/54 55/55/78/55 64/64/88/64
f 55/55/78/55 65/65/89/65 64/64/88/64
f 55/55/78/55 56/56/79/56 65/65/89/65
f 56/56/79/56 66/66/90/66 65/65/89/65
f 56/56/79/56 57/57/80/57 66/66/90/66
f 57/57/80/57 67/67/91/67 66/66/90/66
f 57/57/80/57 58/58/81/58 67/67/91/67
f 58/58/81/58 68/68/92/68 67/67/91/67
f 58/58/81/58 59/59/82/59 68/68/92/68
f 59/59/82/59 69/69/93/69 68/68/92/68
f 59/59/82/59 60/60/83/60 69/69/93/69
f 60/60/83/60 70/70/94/70 69/69/93/69
f 60/60/83/60 61/61/84/61 70/70/94/70
f 61/61/84/61 71/71/95/71 70/70/94/70
f 61/61/84/61 62/62/85/62 71/71/95/71
f 62/62/85/62 72/72/96/72 71/71/95/71
f 62/62/85/62 53/53/86/53 72/72/96/72
f 53/53/86/53 63/63/97/63 72/72/96/72
f 63/63/87/63 64/64/88/64 73/73/98/73
f 64/64/88/64 74/74/99/74 73/73/98/73
f 64/64/88/64 65/65/89/65 74/74/99/74
f 65/65/89/65 75/75/100/75 74/74/99/74
f 65/65/89/65 66/66/90/66 75/75/100/75
f 66/66/90/66 76/76/101/76 75/75/100/75
f 66/66/90/66 67/67/91/67 76/76/101/76
f 67/67/91/67 77/77/102/77 76/76/101/76
f 67/67/91/67 68/68/92/68 77/77/102/77
f 68/68/92/68 78/78/103/78 77/77/102/77
f 68/68/92/68 69/69/93/69 78/78/103/78
f 69/69/93/69 79/79/104/79 78/78/103/78
f 69/69/93/69 70/70/94/70 79/79/104/79
f 70/70/94/70 80/80/105/80 79/79/104/79
f 70/70/94/70 71/71/95/71 80/80/105/80
f 71/71/95/71 81/81/106/81 80/80/105/80
f 71/71/95/71 72/72/96/72 81/81/106/81
f 72/72/96/72 82/82/107/82 81/81/106/81
f 72/72/96/72 63/63/97/63 82/82/107/82
f 63/63/97/63 73/73/108/73 82/82/107/82
f 73/73/98/73 74/74/99/74 83/83/109/83
f 74/74/99/74 84/84/110/84 83/83/109/83
f 74/74/99/74 75/75/100/75 84/84/110/84
f 75/75/100/75 85/85/111/85 84/84/110/84
f 75/75/100/75 76/76/101/76 85/85/111/85
f 76/76/101/76 86/86/112/86 85/85/111/85
f 76/76/101/76 77/77/102/77 86/86/112/86
f 77/77/102/77 87/87/113/87 86/86/112/86
f 77/77/102/77 78/78/103/78 87/87/113/87
f 78/78/103/78 88/88/114/88 87/87/113/87
f 78/78/103/78 79/79/104/79 88/88/114/88
f 79/79/104/79 89/89/115/89 88/88/114/88
f 79/79/104/79 80/80/105/80 89/89/115/89
f 80/80/105/80 90/90/116/90 89/89/115/89
f 80/80/105/80 81/81/106/81 90/90/116/90
f 81/81/106/81 91/91/117/91 90/90/116/90
f 81/81/106/81 82/82/107/82 91/91/117/91
f 82/82/107/82 92/92/118/92 91/91/117/91
f 82/82/107/82 73/73/108/73 92/92/118/92
f 73/73/108/73 83/83/119/83 92/92/118/92
f 2/2/11/2 83/83/109/83 84/84/110/84
f 2/2/12/2 84/84/110/84 85/85/111/85
f 2/2/13/2 85/85/111/85 86/86/112/86
f 2/2/14/2 86/86/112/86 87/87/113/87
f 2/2/15/2 87/87/113/87 88/88/114/88
f 2/2/16/2 88/88/114/88 89/89/115/89
f 2/2/17/2 89/89/115/89 90/90/116/90
f 2/2/18/2 90/90/116/90 91/91/117/91
f 2/2/19/2 91/91/117/91 92/92/118/92
f 2/2/20/2 92/92/118/92 83/83/119/83
